# Blender 4.4.3
# www.blender.org
mtllib fish.mtl
o Cube
v -0.040326 0.017482 0.100000
v -0.021292 0.091383 0.100000
v -0.021292 -0.096455 0.100000
v -0.041442 -0.058730 0.100000
v -0.021292 0.091383 -0.100000
v -0.040326 0.017482 -0.100000
v -0.041442 -0.058730 -0.100000
v -0.021292 -0.096455 -0.100000
v 0.021292 0.091383 0.100000
v 0.040326 0.017482 0.100000
v 0.041442 -0.058730 0.100000
v 0.021292 -0.096455 0.100000
v 0.040326 0.017482 -0.100000
v 0.021292 0.091383 -0.100000
v 0.021292 -0.096455 -0.100000
v 0.041442 -0.058730 -0.100000
v -0.046177 -0.064118 0.000000
v -0.023726 -0.106300 0.001234
v 0.044934 0.020803 0.000000
v 0.023726 0.103149 0.000000
v -0.044934 0.020803 0.000000
v -0.023726 0.103149 0.000000
v 0.046177 -0.064118 0.000000
v 0.023726 -0.106300 0.001234
v -0.004050 0.140359 -0.247984
v -0.016487 0.031960 -0.251771
v -0.017520 -0.041838 -0.258121
v -0.004050 -0.089239 -0.251771
v 0.004050 -0.089239 -0.251771
v 0.017520 -0.041838 -0.258121
v 0.016487 0.031960 -0.251771
v 0.004050 0.140359 -0.247984
v -0.004038 0.196852 -0.396093
v -0.004224 0.163674 -0.408676
v -0.004041 0.041867 -0.298615
v -0.008127 0.036671 -0.285912
v -0.008216 -0.039342 -0.307795
v -0.004041 -0.036254 -0.406221
v -0.003077 -0.073593 -0.395889
v -0.002023 -0.080353 -0.321937
v 0.002023 -0.080353 -0.321937
v 0.003077 -0.073593 -0.395889
v 0.004041 -0.036254 -0.406221
v 0.008216 -0.039342 -0.307795
v 0.008127 0.036671 -0.285912
v 0.004041 0.041867 -0.298615
v 0.004224 0.163674 -0.408676
v 0.004038 0.196852 -0.396093
v -0.009004 0.090219 0.066251
v -0.004227 0.086753 0.074197
v -0.009004 0.094294 -0.048114
v -0.004227 0.091164 -0.049595
v 0.009004 0.090219 0.066251
v 0.004227 0.086753 0.074197
v 0.009004 0.094294 -0.048114
v 0.004227 0.091164 -0.049595
v -0.009004 0.134795 -0.079225
v -0.004227 0.139194 -0.082210
v -0.009004 0.128257 -0.081989
v -0.004227 0.127270 -0.087251
v 0.009004 0.128257 -0.081989
v 0.004227 0.127270 -0.087251
v 0.009004 0.134795 -0.079225
v 0.004227 0.139194 -0.082210
v -0.009004 0.110324 0.046904
v -0.004227 0.111580 0.048305
v -0.009004 0.134797 -0.010980
v -0.004227 0.136657 -0.011009
v 0.009004 0.134797 -0.010980
v 0.004227 0.136657 -0.011009
v 0.009004 0.110324 0.046904
v 0.004227 0.111580 0.048305
v -0.002493 0.020334 0.294684
v -0.006376 0.029050 0.288247
v -0.007172 0.011345 0.294684
v -0.010157 0.014585 0.287970
v -0.006686 -0.011543 0.294684
v -0.010167 -0.015969 0.288138
v -0.001054 -0.020630 0.294684
v -0.004526 -0.029198 0.288302
v 0.007172 0.011345 0.294684
v 0.010157 0.014585 0.287970
v 0.002493 0.020334 0.294684
v 0.006376 0.029050 0.288247
v 0.001054 -0.020630 0.294684
v 0.004526 -0.029198 0.288302
v 0.006686 -0.011543 0.294684
v 0.010167 -0.015969 0.288138
v -0.016487 0.039869 -0.215263
v -0.017694 0.035484 -0.204974
v -0.004887 0.050943 -0.205209
v -0.004050 0.052945 -0.214722
v -0.004050 -0.052945 -0.214722
v -0.004874 -0.051153 -0.205292
v -0.017742 -0.037564 -0.205014
v -0.016487 -0.039869 -0.215263
v 0.004050 0.052945 -0.214722
v 0.004887 0.050943 -0.205209
v 0.017694 0.035484 -0.204974
v 0.016487 0.039869 -0.215263
v 0.016487 -0.039869 -0.215263
v 0.017742 -0.037564 -0.205014
v 0.004874 -0.051153 -0.205292
v 0.004050 -0.052945 -0.214722
v -0.014430 0.063066 0.194125
v -0.026328 0.016981 0.193981
v 0.014430 0.063066 0.194125
v -0.026915 -0.038700 0.194069
v -0.013465 -0.065273 0.194154
v 0.013465 -0.065273 0.194154
v 0.026328 0.016981 0.193981
v 0.026915 -0.038700 0.194069
v -0.009004 -0.093103 -0.002043
v -0.004227 -0.090128 0.006099
v -0.009004 -0.090199 -0.116444
v -0.004227 -0.086984 -0.117732
v 0.009004 -0.093103 -0.002043
v 0.004227 -0.090128 0.006099
v 0.009004 -0.090199 -0.116444
v 0.004227 -0.086984 -0.117732
v -0.009004 -0.128728 -0.149966
v -0.004227 -0.132937 -0.153214
v -0.009004 -0.122034 -0.152326
v -0.004227 -0.120727 -0.157519
v 0.009004 -0.122034 -0.152326
v 0.004227 -0.120727 -0.157519
v 0.009004 -0.128728 -0.149966
v 0.004227 -0.132937 -0.153214
v -0.009004 -0.111991 -0.022580
v -0.004227 -0.113330 -0.021258
v -0.009004 -0.132890 -0.081848
v -0.004227 -0.134745 -0.081990
v 0.009004 -0.132890 -0.081848
v 0.004227 -0.134745 -0.081990
v 0.009004 -0.111991 -0.022580
v 0.004227 -0.113330 -0.021258
vn -0.9866 0.1304 0.0985
vn -0.5966 0.7807 0.1859
vn -0.5003 -0.8424 0.1999
vn -0.9625 -0.2399 0.1267
vn -0.5818 0.7833 -0.2188
vn -0.9813 0.1408 -0.1312
vn -0.9514 -0.2588 -0.1669
vn -0.4818 -0.8428 -0.2400
vn 0.5966 0.7807 0.1859
vn 0.9866 0.1304 0.0985
vn 0.9625 -0.2399 0.1267
vn 0.5003 -0.8424 0.1999
vn 0.9813 0.1408 -0.1312
vn 0.5818 0.7833 -0.2188
vn 0.4818 -0.8428 -0.2400
vn 0.9514 -0.2588 -0.1669
vn -0.9704 -0.2416 -0.0004
vn -0.5066 -0.8622 0.0016
vn 0.9909 0.1349 -0.0000
vn 0.5973 0.8020 -0.0000
vn -0.9909 0.1349 -0.0000
vn -0.5973 0.8020 -0.0000
vn 0.9704 -0.2416 -0.0004
vn 0.5066 -0.8622 0.0016
vn -0.6052 0.5808 0.5445
vn -0.9978 0.0659 -0.0102
vn -0.9903 -0.1342 -0.0358
vn -0.5357 -0.8119 0.2321
vn 0.5357 -0.8119 0.2321
vn 0.9903 -0.1342 -0.0358
vn 0.9978 0.0659 -0.0102
vn 0.6052 0.5808 0.5445
vn -0.5711 0.7316 -0.3723
vn -0.5767 -0.1740 -0.7982
vn -0.8841 0.0363 -0.4660
vn -0.9948 0.0406 -0.0932
vn -0.9934 -0.0530 -0.1019
vn -0.5934 0.2418 -0.7677
vn -0.5725 -0.6395 -0.5131
vn -0.6504 -0.7513 -0.1122
vn 0.6504 -0.7513 -0.1122
vn 0.5725 -0.6395 -0.5131
vn 0.5934 0.2418 -0.7677
vn 0.9934 -0.0530 -0.1019
vn 0.9948 0.0406 -0.0932
vn 0.8841 0.0363 -0.4660
vn 0.5767 -0.1740 -0.7982
vn 0.5711 0.7316 -0.3723
vn -0.9037 -0.1409 0.4044
vn -0.3838 -0.3500 0.8545
vn -0.8583 -0.4747 -0.1946
vn -0.3071 -0.8766 -0.3704
vn 0.9037 -0.1409 0.4044
vn 0.3838 -0.3500 0.8545
vn 0.8583 -0.4747 -0.1946
vn 0.3071 -0.8766 -0.3704
vn -0.8621 0.4379 -0.2550
vn -0.3250 0.8022 -0.5008
vn -0.8776 -0.1054 -0.4677
vn -0.3476 -0.1924 -0.9177
vn 0.8776 -0.1054 -0.4677
vn 0.3476 -0.1924 -0.9177
vn 0.8621 0.4379 -0.2550
vn 0.3250 0.8022 -0.5008
vn -0.8075 0.4950 0.3208
vn -0.2060 0.8137 0.5436
vn -0.8230 0.5531 0.1291
vn -0.2289 0.9512 0.2068
vn 0.8230 0.5531 0.1291
vn 0.2289 0.9512 0.2068
vn 0.8075 0.4950 0.3208
vn 0.2060 0.8137 0.5436
vn -0.2883 0.3112 0.9056
vn -0.5363 0.6549 0.5324
vn -0.5398 0.0663 0.8392
vn -0.9184 0.1466 0.3675
vn -0.5267 -0.0862 0.8457
vn -0.8880 -0.2064 0.4109
vn -0.2462 -0.3260 0.9128
vn -0.4602 -0.6925 0.5555
vn 0.5398 0.0663 0.8392
vn 0.9184 0.1466 0.3675
vn 0.2883 0.3112 0.9056
vn 0.5363 0.6549 0.5324
vn 0.2462 -0.3260 0.9128
vn 0.4602 -0.6925 0.5555
vn 0.5267 -0.0862 0.8457
vn 0.8880 -0.2064 0.4109
vn -0.9585 0.2713 0.0873
vn -0.9659 0.2275 -0.1237
vn -0.5206 0.8504 -0.0755
vn -0.6000 0.6534 0.4616
vn -0.5134 -0.7905 0.3340
vn -0.4575 -0.8779 -0.1415
vn -0.9452 -0.2813 -0.1658
vn -0.9526 -0.3008 0.0461
vn 0.6000 0.6534 0.4616
vn 0.5206 0.8504 -0.0755
vn 0.9659 0.2275 -0.1237
vn 0.9585 0.2713 0.0873
vn 0.9526 -0.3008 0.0461
vn 0.9452 -0.2813 -0.1658
vn 0.4575 -0.8779 -0.1415
vn 0.5134 -0.7905 0.3340
vn -0.5937 0.7496 0.2926
vn -0.9786 0.1298 0.1597
vn 0.5937 0.7496 0.2926
vn -0.9541 -0.2187 0.2044
vn -0.5006 -0.8000 0.3306
vn 0.5006 -0.8000 0.3306
vn 0.9786 0.1298 0.1597
vn 0.9541 -0.2187 0.2044
vn 0.9037 -0.1159 -0.4123
vn 0.3838 -0.2972 -0.8743
vn 0.8583 -0.4857 0.1653
vn 0.3071 -0.8976 0.3163
vn -0.9037 -0.1159 -0.4123
vn -0.3838 -0.2972 -0.8743
vn -0.8583 -0.4857 0.1653
vn -0.3071 -0.8976 0.3163
vn 0.8621 0.4215 0.2812
vn 0.3250 0.7702 0.5487
vn 0.8776 -0.1337 0.4604
vn 0.3476 -0.2480 0.9042
vn -0.8776 -0.1337 0.4604
vn -0.3476 -0.2480 0.9042
vn -0.8621 0.4215 0.2812
vn -0.3250 0.7702 0.5487
vn 0.8075 0.5136 -0.2900
vn 0.2060 0.8453 -0.4930
vn 0.8230 0.5600 -0.0951
vn 0.2289 0.9621 -0.1484
vn -0.8230 0.5600 -0.0951
vn -0.2289 0.9621 -0.1484
vn -0.8075 0.5136 -0.2900
vn -0.2060 0.8453 -0.4930
vt 0.404200 0.371600
vt 0.446397 0.283739
vt 0.552685 0.276974
vt 0.594424 0.366762
vt 0.594424 0.383238
vt 0.552685 0.473026
vt 0.446397 0.466261
vt 0.404200 0.378400
vt 0.719292 0.750000
vt 0.780708 0.750000
vt 0.593196 0.000000
vt 0.406804 0.000000
vt 0.406804 0.000000
vt 0.406804 0.750000
vt 0.593196 0.750000
vt 0.593196 0.750000
vt 0.671090 0.625000
vt 0.828910 0.625000
vt 0.828910 0.750000
vt 0.671090 0.750000
vt 0.390546 0.625000
vt 0.609454 0.625000
vt 0.609454 0.750000
vt 0.390546 0.750000
vt 0.589079 0.500000
vt 0.410940 0.500000
vt 0.431333 0.500000
vt 0.568703 0.500000
vt 0.125000 0.750000
vt 0.219292 0.750000
vt 0.231606 0.500000
vt 0.171090 0.500000
vt 0.125000 0.500000
vt 0.280708 0.750000
vt 0.390546 0.125000
vt 0.609454 0.125000
vt 0.609454 0.250000
vt 0.390546 0.250000
vt 0.171090 0.625000
vt 0.328910 0.625000
vt 0.328910 0.750000
vt 0.171090 0.750000
vt 0.625000 0.250000
vt 0.568703 0.250000
vt 0.589079 0.250000
vt 0.125000 0.625000
vt 0.625000 0.125000
vt 0.328910 0.500000
vt 0.390546 0.500000
vt 0.594019 0.750000
vt 0.405986 0.750000
vt 0.283010 0.750000
vt 0.216990 0.750000
vt 0.609454 0.000000
vt 0.390546 0.000000
vt 0.405986 0.000000
vt 0.594019 0.000000
vt 0.268394 0.500000
vt 0.292122 0.500000
vt 0.207878 0.500000
vt 0.768412 0.500000
vt 0.731588 0.500000
vt 0.792086 0.500000
vt 0.707914 0.500000
vt 0.410940 0.250000
vt 0.568703 0.250000
vt 0.431333 0.250000
vt 0.431333 0.500000
vt 0.219292 0.750000
vt 0.625000 0.000000
vt 0.783047 0.750000
vt 0.716953 0.750000
vt 0.283010 0.750000
vt 0.406804 0.750000
vt 0.125000 0.750000
vt 0.392197 0.851377
vt 0.408174 0.800985
vt 0.408174 0.949015
vt 0.392197 0.898623
vt 0.607803 0.851377
vt 0.591826 0.800985
vt 0.617032 0.820667
vt 0.375000 0.844292
vt 0.402280 0.763412
vt 0.402280 0.986588
vt 0.375000 0.905708
vt 0.591826 0.949015
vt 0.607803 0.898623
vt 0.617032 0.929333
vt 0.593196 1.000000
vt 0.625000 0.844292
vt 0.625000 0.905708
vt 0.585430 1.000000
vt 0.406804 1.000000
vt 0.625000 0.316311
vt 0.625000 0.433689
vt 0.502506 0.433689
vt 0.502506 0.316311
vt 0.391978 0.009955
vt 0.566706 0.013199
vt 0.602102 0.033296
vt 0.615083 0.176440
vt 0.495541 0.244315
vt 0.391978 0.240917
vt 0.391978 0.509083
vt 0.495541 0.505685
vt 0.615083 0.573560
vt 0.602102 0.716704
vt 0.566706 0.736801
vt 0.391978 0.740045
vt 0.191311 0.500000
vt 0.308689 0.500000
vt 0.308689 0.750000
vt 0.191311 0.750000
vt 0.691311 0.569551
vt 0.808689 0.569551
vt 0.808689 0.713343
vt 0.691311 0.713343
vt 0.625000 0.816311
vt 0.625000 0.933689
vt 0.560438 0.933689
vt 0.560438 0.816311
vt 0.375000 0.816311
vt 0.375000 0.933689
vt 0.375000 0.250000
vt 0.375000 0.000000
vt 0.625000 0.713343
vt 0.560438 0.750000
vt 0.560438 0.000000
vt 0.625000 0.036657
vt 0.625000 0.180449
vt 0.502506 0.250000
vt 0.502506 0.500000
vt 0.625000 0.569551
vt 0.375000 0.433689
vt 0.375000 0.316311
vt 0.428625 0.487762
vt 0.375000 0.328776
vt 0.625000 0.328776
vt 0.567248 0.500000
vt 0.567248 0.250000
vt 0.625000 0.421224
vt 0.375000 0.421224
vt 0.428625 0.262238
vt 0.671090 0.500000
vt 0.609454 0.500000
vt 0.719292 0.750000
vt 0.828910 0.500000
vt 0.792086 0.500000
vt 0.568703 0.500000
vt 0.292122 0.500000
s 1
usemtl Material
f 85/1/85 87/2/87 81/3/81 83/4/83 73/5/73 75/6/75 77/7/77 79/8/79
f 22/17/22 20/18/20 14/19/14 5/20/5
f 17/21/17 21/22/21 6/23/6 7/24/7
f 106/25/106 108/26/108 78/27/78 76/28/76
f 110/31/110 12/32/12 11/33/11 112/33/112
f 23/35/23 19/36/19 10/37/10 11/38/11
f 24/39/24 18/40/18 8/41/8 15/42/15
f 107/43/107 84/43/84 82/44/82 111/45/111
f 24/39/24 15/42/15 16/29/16 23/46/23
f 22/17/22 5/20/5 6/23/6 21/22/21
f 20/47/20 9/43/9 10/37/10 19/36/19
f 18/40/18 3/48/3 4/49/4 17/21/17
f 7/24/7 6/23/6 90/50/90 95/51/95
f 15/42/15 8/41/8 94/52/94 103/53/103
f 8/41/8 18/40/18 17/21/17 7/24/7
f 13/54/13 16/55/16 102/56/102 99/57/99
f 109/58/109 110/31/110 86/59/86 80/60/80
f 107/61/107 105/62/105 74/63/74 84/64/84
f 112/65/112 111/45/111 82/66/82 88/67/88
f 109/58/109 80/60/80 78/68/78 108/26/108
f 5/20/5 14/19/14 98/71/98 91/72/91
f 98/70/98 14/70/14 13/54/13 99/57/99
f 15/42/15 103/53/103 102/29/102 16/29/16
f 94/73/94 8/41/8 7/24/7 95/51/95
f 5/20/5 91/72/91 90/50/90 6/23/6
f 79/8/79 77/7/77 78/137/78 80/138/80
f 75/6/75 73/5/73 74/139/74 76/140/76
f 83/4/83 81/3/81 82/141/82 84/142/84
f 87/2/87 85/1/85 86/143/86 88/144/88
f 77/7/77 75/6/75 76/28/76 78/27/78
f 73/5/73 83/4/83 84/142/84 74/139/74
f 85/1/85 79/8/79 80/138/80 86/143/86
f 81/3/81 87/2/87 88/67/88 82/66/82
f 105/62/105 2/145/2 1/146/1 106/25/106
f 92/147/92 89/16/89 90/50/90 91/72/91
f 96/74/96 93/34/93 94/73/94 95/51/95
f 104/30/104 101/29/101 102/29/102 103/53/103
f 100/11/100 97/70/97 98/70/98 99/57/99
f 89/15/89 96/14/96 95/51/95 90/50/90
f 97/10/97 92/9/92 91/72/91 98/71/98
f 93/34/93 104/30/104 103/53/103 94/52/94
f 101/12/101 100/11/100 99/57/99 102/56/102
f 14/70/14 20/47/20 19/36/19 13/54/13
f 2/145/2 22/17/22 21/22/21 1/146/1
f 12/32/12 24/39/24 23/46/23 11/33/11
f 12/32/12 3/48/3 18/40/18 24/39/24
f 16/55/16 13/54/13 19/36/19 23/35/23
f 4/49/4 1/146/1 21/22/21 17/21/17
f 2/145/2 9/148/9 20/18/20 22/17/22
f 74/149/74 105/62/105 106/25/106 76/150/76
f 3/48/3 109/58/109 108/26/108 4/49/4
f 11/38/11 10/37/10 111/45/111 112/65/112
f 9/148/9 2/145/2 105/62/105 107/61/107
f 3/48/3 12/32/12 110/31/110 109/58/109
f 9/43/9 107/43/107 111/45/111 10/37/10
f 86/151/86 110/31/110 112/33/112 88/33/88
f 1/146/1 4/49/4 108/26/108 106/25/106
usemtl Material.001
f 92/9/92 97/10/97 32/10/32 25/9/25
f 100/11/100 101/12/101 30/13/30 31/11/31
f 96/14/96 89/15/89 26/16/26 27/14/27
f 101/29/101 104/30/104 29/30/29 30/29/30
f 104/30/104 93/34/93 28/34/28 29/30/29
f 29/30/29 28/34/28 40/34/40 41/69/41
f 97/70/97 100/11/100 31/11/31 32/70/32
f 93/34/93 96/74/96 27/14/27 28/34/28
f 25/9/25 32/10/32 48/10/48 33/9/33
f 30/29/30 29/30/29 41/30/41 44/75/44
f 28/34/28 27/14/27 37/14/37 40/34/40
f 31/11/31 30/13/30 44/13/44 45/11/45
f 39/76/39 38/77/38 43/78/43 42/79/42
f 32/70/32 31/11/31 45/11/45 48/70/48
f 27/14/27 26/16/26 36/16/36 37/14/37
f 34/80/34 35/81/35 36/16/36 33/82/33
f 38/77/38 39/76/39 40/83/40 37/84/37
f 42/79/42 43/78/43 44/85/44 41/86/41
f 46/87/46 47/88/47 48/89/48 45/90/45
f 35/81/35 38/77/38 37/14/37 36/16/36
f 47/88/47 34/80/34 33/91/33 48/92/48
f 39/76/39 42/79/42 41/86/41 40/83/40
f 43/78/43 46/87/46 45/93/45 44/94/44
f 26/16/26 25/9/25 33/9/33 36/16/36
f 70/95/70 68/96/68 66/97/66 72/98/72
f 55/99/55 61/100/61 63/101/63 69/102/69 71/103/71 53/104/53
f 49/105/49 65/106/65 67/107/67 57/108/57 59/109/59 51/110/51
f 54/111/54 50/112/50 52/113/52 56/114/56
f 68/115/68 70/116/70 64/117/64 58/118/58
f 58/119/58 64/120/64 62/121/62 60/122/60
f 52/123/52 60/122/60 62/121/62 56/124/56
f 52/113/52 50/112/50 49/105/49 51/110/51
f 54/125/54 56/126/56 55/99/55 53/104/53
f 59/109/59 57/108/57 58/127/58 60/128/60
f 63/101/63 61/100/61 62/129/62 64/130/64
f 60/122/60 52/123/52 51/110/51 59/109/59
f 61/100/61 55/99/55 56/126/56 62/129/62
f 71/103/71 69/102/69 70/131/70 72/132/72
f 67/107/67 65/106/65 66/133/66 68/134/68
f 50/135/50 66/97/66 65/106/65 49/105/49
f 68/115/68 58/118/58 57/108/57 67/107/67
f 53/104/53 71/103/71 72/98/72 54/136/54
f 69/102/69 63/101/63 64/130/64 70/131/70
f 54/136/54 72/98/72 66/97/66 50/135/50
f 89/16/89 92/147/92 25/9/25 26/16/26
f 46/87/46 35/81/35 34/80/34 47/88/47
f 134/95/134 132/96/132 130/97/130 136/98/136
f 119/99/119 125/100/125 127/101/127 133/102/133 135/103/135 117/104/117
f 113/105/113 129/106/129 131/107/131 121/108/121 123/109/123 115/110/115
f 118/111/118 114/112/114 116/113/116 120/114/120
f 132/115/132 134/116/134 128/117/128 122/118/122
f 122/119/122 128/120/128 126/121/126 124/122/124
f 116/123/116 124/122/124 126/121/126 120/124/120
f 116/113/116 114/112/114 113/105/113 115/110/115
f 118/125/118 120/126/120 119/99/119 117/104/117
f 123/109/123 121/108/121 122/127/122 124/128/124
f 127/101/127 125/100/125 126/129/126 128/130/128
f 124/122/124 116/123/116 115/110/115 123/109/123
f 125/100/125 119/99/119 120/126/120 126/129/126
f 135/103/135 133/102/133 134/131/134 136/132/136
f 131/107/131 129/106/129 130/133/130 132/134/132
f 114/135/114 130/97/130 129/106/129 113/105/113
f 132/115/132 122/118/122 121/108/121 131/107/131
f 117/104/117 135/103/135 136/98/136 118/136/118
f 133/102/133 127/101/127 128/130/128 134/131/134
f 118/136/118 136/98/136 130/97/130 114/135/114
f 43/78/43 38/77/38 35/81/35 46/87/46
